<svg transform="scale(4)" xmlns="http://www.w3.org/2000/svg" viewBox="0 0 100 100" class="show_show__wrapper__graphic__5Waiy "><title>React</title><defs><style>.cls-1{fill:#ffffff;}.cls-2{fill:#070708a4;}</style></defs><g id="_0144_Placeholder" data-name="0144_Placeholder"><circle class="cls-1" cx="50.53" cy="40" r="17.65"></circle><path class="cls-2" d="M50,88.29a1.6,1.6,0,0,0,1.18-.52c1.14-1.28,27.94-31.32,27.94-46.95a29.12,29.12,0,0,0-58.24,0c0,15.63,26.79,45.67,27.94,46.95A1.6,1.6,0,0,0,50,88.29Zm0-73.41A26,26,0,0,1,75.94,40.82c0,12.67-20.71,37.42-25.94,43.47-2.26-2.61-7.4-8.7-12.49-15.78C28.71,56.27,24.06,46.7,24.06,40.82A26,26,0,0,1,50,14.88Z"></path><path class="cls-2" d="M50.28,60.77A20.79,20.79,0,1,0,29.5,40h0A20.81,20.81,0,0,0,50.28,60.77ZM67.87,40A17.6,17.6,0,1,1,50.27,22.4h0A17.61,17.61,0,0,1,67.87,40Z"></path><path class="cls-2" d="M46.82,47.35a1.56,1.56,0,0,0,1.13.48h0a1.58,1.58,0,0,0,1.15-.53L60.09,35a1.59,1.59,0,0,0-2.32-2.18l-.06.06-9.81,11L43,38.79A1.59,1.59,0,0,0,40.67,41Z"></path></g></svg>